<?xml version="1.0" encoding="utf-8"?>
<!-- Generator: Adobe Illustrator 24.2.1, SVG Export Plug-In . SVG Version: 6.00 Build 0)  -->
<svg version="1.1" id="Layer_1" xmlns="http://www.w3.org/2000/svg" xmlns:xlink="http://www.w3.org/1999/xlink" x="0px" y="0px"
	 viewBox="0 0 1366 768" style="enable-background:new 0 0 1366 768;" xml:space="preserve">
<style type="text/css">
	.st0{fill:#C4C4C4;}
	.st1{fill:#263168;}
	.st2{fill:#B9DCFF;}
	.st3{fill:#E9BC80;}
	.st4{fill:none;stroke:#7B7E88;stroke-miterlimit:10;}
	.st5{fill:#8B90FF;}
	.st6{fill:#E5E5E5;}
	.st7{fill:#7B7E88;}
	.st8{fill:#FFACA2;}
</style>
<path class="st0" d="M871.4,676.5l2-0.4c-2.7-15.1,2.7-31.7,14.4-44.4c10-10.8,24.4-19,41.8-23.6c15.1-4,26.9-3,35.1,2.8
	c1,0.7,1.9,1.5,2.8,2.2c2,1.8,4.3,3.3,6.8,4.4c6.1,2.3,13.2,0,21.9-6.9c13.3-10.6,37.1-16.5,54.9-6.4c1.7,1,3.4,2.1,5.1,3.2
	c4.5,2.9,9.1,6,14.5,6.6c3,0.2,6,0,9-0.5c1-0.2,2.1-0.3,3.1-0.4c23-2.6,46.7,16,49.6,39l2-0.3c-3-24-27.7-43.5-51.8-40.8
	c-1.1,0.1-2.1,0.3-3.2,0.4c-2.8,0.5-5.6,0.7-8.4,0.5c-5-0.6-9.2-3.3-13.6-6.3c-1.7-1.1-3.4-2.3-5.2-3.3c-18.8-10.6-43-4.7-57.2,6.6
	c-8.1,6.4-14.6,8.6-19.9,6.6c-2.3-1-4.4-2.4-6.2-4.1c-0.9-0.8-1.9-1.6-2.9-2.3c-8.7-6.2-21.1-7.3-36.8-3.1
	c-17.8,4.7-32.6,13.1-42.8,24.2C874.2,643.6,868.7,660.8,871.4,676.5z"/>
<path class="st0" d="M1159.1,598.4c1.9-13.6,10.2-25.5,22.4-31.8c2-1,4.1-1.9,6.2-2.8c3.8-1.4,7.4-3.2,10.7-5.5
	c3.4-2.7,6.4-5.8,9-9.3c1.3-1.6,2.6-3.2,3.9-4.6c15.3-16.7,42.3-22.6,68.6-14.9c0.9,0.3,1.8,0.5,2.7,0.8c3.9,1.4,7.9,2.2,12,2.5
	c9.7,0.3,19.3-5.2,27.9-10.1c2.9-1.7,5.7-3.3,8.3-4.5c11.4-5.6,21.1-5.2,28.9,1.2l1.4-1.7c-8.4-6.9-19.2-7.4-31.3-1.4
	c-2.7,1.3-5.5,2.9-8.4,4.6c-8.7,5-17.7,10.1-26.7,9.8c-3.9-0.3-7.7-1.1-11.4-2.4l-2.7-0.8c-27.1-7.9-55-1.8-70.9,15.6
	c-1.4,1.5-2.7,3.2-4,4.7c-2.7,3.4-5.3,6.6-8.6,9c-3.2,2.1-6.6,3.9-10.3,5.2c-2.1,0.9-4.3,1.8-6.4,2.8c-12.8,6.7-21.7,19.1-23.6,33.5
	L1159.1,598.4z"/>
<rect x="1253.2" y="571.8" class="st0" width="2.2" height="139.8"/>
<path class="st0" d="M1254.2,645.3l51.8-54.7c0.4-0.4,0.7-0.8,1-1.2s0.6-0.7,0.9-1.1l-1.7-1.4c-0.3,0.4-0.6,0.8-0.9,1.2
	s-0.6,0.7-0.9,1.1l-50.2,53l-48.7-52l-1.6,1.5L1254.2,645.3z"/>
<path class="st0" d="M1200.4,618.6h28.6l0.1-0.9c0.2-1.1-0.1-2.3-0.8-3.3v-24.6h-2.2v25.4l0.2,0.3c0.2,0.3,0.4,0.7,0.5,1h-26.5
	c-2.4,0-4.9-0.2-7.2-0.5l-3.2-0.3l-0.2,2.2l3.1,0.3C1195.4,618.4,1197.9,618.6,1200.4,618.6z"/>
<path class="st0" d="M1322.3,612.7c-0.2-0.1-0.4-0.2-0.6-0.3c-36.5-0.9-36.7-1.2-37.1-2l-0.1-0.2v-35h2.2V609
	c4.1,0.4,22.9,0.9,35.6,1.2h1v0.6l0.8-0.8c0.5,0.4,0.6,1.1,0.2,1.7c-0.4,0.6-1,1-1.7,1C1322.5,612.7,1322.4,612.7,1322.3,612.7z
	 M1323,610.7c-0.1-0.1-0.3-0.1-0.4-0.1c-0.1,0.1-0.2,0.3-0.2,0.4c0,0.2,0,0.5,0.2,0.6l0.7-0.7C1323.2,610.8,1323.1,610.7,1323,610.7
	z"/>
<path class="st0" d="M367.1,650.4c1.9-13.6,10.2-25.5,22.4-31.8c2-1,4.1-1.9,6.2-2.8c3.8-1.4,7.4-3.2,10.7-5.5
	c3.4-2.7,6.4-5.8,9-9.3c1.3-1.6,2.6-3.2,3.9-4.6c15.3-16.7,42.3-22.6,68.6-14.9c0.9,0.3,1.8,0.5,2.7,0.8c3.9,1.4,7.9,2.2,12,2.5
	c9.7,0.3,19.3-5.2,27.9-10.1c2.9-1.7,5.7-3.3,8.3-4.5c11.4-5.6,21.1-5.2,28.9,1.2l1.4-1.7c-8.4-6.9-19.2-7.4-31.3-1.4
	c-2.7,1.3-5.5,2.9-8.4,4.6c-8.7,5-17.7,10.1-26.7,9.8c-3.9-0.3-7.7-1.1-11.4-2.4l-2.7-0.8c-27.1-7.9-55-1.8-70.9,15.6
	c-1.4,1.5-2.7,3.2-4,4.7c-2.7,3.4-5.3,6.6-8.6,9c-3.2,2.1-6.6,3.9-10.3,5.2c-2.1,0.9-4.3,1.8-6.4,2.8c-12.8,6.7-21.7,19.1-23.6,33.5
	L367.1,650.4z"/>
<rect x="470.6" y="623.8" class="st0" width="2.2" height="139.8"/>
<path class="st0" d="M471.8,697.3L420,642.6c-0.4-0.4-0.7-0.8-1-1.2s-0.6-0.7-0.9-1.1l1.7-1.4c0.3,0.4,0.6,0.8,0.9,1.2
	s0.6,0.7,0.9,1.1l50.2,53l48.7-52l1.6,1.5L471.8,697.3z"/>
<path class="st0" d="M525.6,670.6H497l-0.1-0.9c-0.2-1.1,0.1-2.3,0.8-3.3v-24.6h2.2v25.4l-0.2,0.3c-0.2,0.3-0.4,0.7-0.5,1h26.5
	c2.4,0,4.9-0.2,7.2-0.5l3.2-0.3l0.2,2.2l-3.1,0.3C530.6,670.4,528.1,670.6,525.6,670.6z"/>
<path class="st0" d="M403.4,664.7c-0.7,0-1.4-0.4-1.7-1c-0.3-0.6-0.2-1.3,0.2-1.7l0.8,0.8v-0.6h1c12.7-0.3,31.5-0.9,35.6-1.2v-33.8
	h2.2v35l-0.1,0.2c-0.4,0.8-0.5,1.1-37.1,2c-0.2,0.2-0.4,0.3-0.6,0.3C403.7,664.7,403.5,664.7,403.4,664.7z M402.8,662.9l0.7,0.7
	c0.2-0.2,0.2-0.4,0.2-0.6c0-0.2-0.1-0.3-0.2-0.4c-0.2,0-0.3,0-0.4,0.1C402.9,662.7,402.9,662.8,402.8,662.9z"/>
<rect x="704.4" y="563" class="st0" width="2" height="203.5"/>
<polygon class="st0" points="705.4,676.8 771.4,597.7 769.9,596.4 705.2,673.8 645.2,615.6 643.8,617.1 "/>
<path class="st0" d="M640.5,645.4c13.4,0,31.9-0.1,33.1-0.1h1.1l-2.1-39.7l-2,0.1l2,37.5c-6.6,0-41.5,0.3-45.2,0l-0.1,2
	C628.5,645.3,633.9,645.4,640.5,645.4z"/>
<path class="st0" d="M746.1,631.9c3.1,0,8.6-0.2,18.8-0.5c10.8-0.4,21.6-0.8,21.6-0.8l-0.1-2c-15.3,0.6-38.2,1.5-42.5,1.3l-3.8-30.5
	l-2,0.3l3.9,31.5l0.1,0.2C742.4,631.7,742.5,631.9,746.1,631.9z"/>
<rect x="933.8" y="639.4" class="st0" width="2" height="122.1"/>
<rect x="923.6" y="682.4" transform="matrix(0.6285 -0.7778 0.7778 0.6285 -177.2417 995.6998)" class="st0" width="60.3" height="2"/>
<path class="st0" d="M584.7,615.4l2.1-0.4c-4.3-23.3,9.5-46.1,32.1-53.3c3.5-1,7.1-1.9,10.7-2.5c4.3-0.7,8.5-1.8,12.6-3.2
	c2.2-0.9,4.3-2,6.3-3.4c1.2-0.8,2.4-1.5,3.7-2.2c1.7-0.8,3.4-1.4,5.2-1.8c1.2-0.3,2.4-0.7,3.8-1.1c4.6-1.8,9-4.2,12.9-7.2
	c5.3-3.7,10.3-7.2,18.6-7.5c12.4-0.5,24.8,1,36.7,4.7c25.1,7.6,46.5,23.2,60.3,44.1c1.1,1.6,2.2,3.4,3.2,5
	c3.6,5.8,7.3,11.8,12.7,16.3c5.1,4.3,11.2,6.9,17.1,9.4c2.8,1.2,5.7,2.4,8.5,3.8c9.6,4.9,17.8,12,24,20.8l1.8-1.3
	c-6.4-9.1-14.9-16.4-24.8-21.5c-2.8-1.4-5.8-2.7-8.6-3.9c-5.8-2.5-11.8-5-16.6-9c-5.1-4.3-8.7-10.1-12.2-15.8
	c-1-1.7-2.1-3.4-3.2-5.1c-14-21.2-35.9-37.2-61.4-44.9c-12.1-3.7-24.8-5.3-37.4-4.8c-8.9,0.4-14.2,4.1-19.7,7.9
	c-3.8,2.9-8,5.2-12.4,6.9c-1.2,0.4-2.4,0.8-3.6,1.1c-1.9,0.4-3.8,1.1-5.6,2c-1.3,0.7-2.6,1.5-3.9,2.3c-1.8,1.3-3.8,2.3-5.9,3.1
	c-4,1.3-8.1,2.4-12.3,3.1c-3.7,0.7-7.3,1.5-10.9,2.6C594.6,567.2,580.3,591.1,584.7,615.4L584.7,615.4z"/>
<path class="st1" d="M121.6,140.6h0.4c1.2-0.2,2.4-0.6,3.4-1.3l0.4-0.2c5.9-3.2,12.9-3.5,19-0.7l0.2,0.1c1.3,0.6,2.8,1.4,4.4,0.7
	l-0.9-2.2c-0.7,0.3-1.6-0.2-2.6-0.6l-0.2-0.1c-6.7-3.1-14.6-2.9-21.1,0.7l-0.4,0.2c-0.7,0.5-1.6,0.9-2.4,1c-1.3-0.1-2.5-0.8-3.3-1.8
	c-0.6-0.8-1.2-1.7-1.7-2.7c-0.3-0.5-0.6-1.1-1-1.6c-2.7-4.3-7-7.4-12-8.4l-0.5,2.3c4.3,0.9,8.1,3.6,10.5,7.4c0.3,0.5,0.6,1,0.9,1.5
	c0.6,1.1,1.2,2.1,1.9,3C117.8,139.4,119.6,140.4,121.6,140.6z"/>
<rect x="1067.8" y="658.4" transform="matrix(0.8283 -0.5603 0.5603 0.8283 -184.117 718.0275)" class="st0" width="23.2" height="2"/>
<path class="st0" d="M1069.1,734.1h2v-97.3c-0.1-0.6-0.2-1.2-0.3-1.8c-0.1-0.6-0.2-1.2-0.3-1.9l-2,0.3c0.1,0.6,0.2,1.2,0.3,1.8
	s0.2,1.2,0.3,1.8V734.1z"/>
<path class="st0" d="M1068.9,685.2l1.7-1.1c-8.1-12.7-16.8-25.2-25.8-37.2l-0.8-1l-1.6,1.2l0.8,1
	C1052.2,660.1,1060.8,672.6,1068.9,685.2z"/>
<rect x="198.3" y="156.2" class="st2" width="208" height="2.2"/>
<rect x="0.8" y="154.5" class="st2" width="155.2" height="2.2"/>
<path class="st2" d="M258.1,97.4c2,0,3.9-0.2,5.9-0.5c2.2-0.3,4.4-0.5,6.6-0.5v-2.2c-2.3,0-4.6,0.2-6.8,0.5
	c-3.9,0.4-7.5,0.9-10.1-0.4c-8.6-5.5-15.9-12.5-23-19.2c-12.6-12.1-24.6-23.6-43.1-25.9l-0.3,2.2c17.7,2.2,29.4,13.4,41.8,25.3
	c7.1,6.8,14.5,13.9,23.3,19.5h0.1C254.3,97.1,256.2,97.5,258.1,97.4z"/>
<path class="st2" d="M322,95.6l0.4-2.2c-15.2-3-30.9-3.1-46.1-0.4l0.4,2.2C291.7,92.6,307,92.7,322,95.6z"/>
<path class="st2" d="M405.2,148.3l2.2-0.2c-1.7-15.7-15.5-29-31.3-30.3c-3.2,0-6.4,0.3-9.6,0.9c-6.2,1-14.8,2.3-16.3-0.2
	c-0.8-1.5-1.3-3.2-1.5-5c-0.3-2.6-1.2-5-2.5-7.2c-2.8-3.7-6.5-6.7-10.7-8.7l-1,2c3.9,1.8,7.3,4.6,9.8,8.1c1.2,1.9,1.9,4.1,2.2,6.3
	c0.3,2,0.9,3.9,1.8,5.7c2.3,3.7,10.5,2.4,18.5,1.2c3-0.6,6-0.9,9.1-0.9C390.7,121.2,403.6,133.6,405.2,148.3z"/>
<rect x="950.4" y="363" class="st2" width="397.4" height="4.2"/>
<path class="st2" d="M1244.2,248.3h0.2c16.8-10.7,31-24.3,44.5-37.3c23.7-22.7,46-44.1,79.9-48.3l-0.6-4.2
	c-35.3,4.4-58.3,26.4-82.3,49.5c-13.6,12.8-27.5,26.2-43.9,36.7c-5,2.5-11.8,1.5-19.3,0.8c-4.2-0.6-8.6-1-13-1v4.2
	c4.2,0,8.4,0.4,12.6,1c3.8,0.6,7.5,1,11.3,1C1237.1,250.8,1240.8,250,1244.2,248.3z"/>
<path class="st2" d="M1198,246.4l0.8-4.2c-29-5.2-59-5-88.1,0.8l0.8,4.2C1140.1,241.6,1169.3,241.4,1198,246.4z"/>
<path class="st2" d="M1008.4,293.8c5.9,0,11.7,0.6,17.4,1.7c15.3,2.3,31,4.8,35.3-2.3c1.7-3.4,2.9-7.1,3.4-10.9
	c0.6-4.2,1.9-8.4,4.2-12c4.8-6.7,11.3-12,18.7-15.5l-1.9-3.8c-8,3.8-15.1,9.6-20.4,16.6c-2.5,4.2-4.2,8.8-4.8,13.8
	c-0.4,3.4-1.3,6.7-2.9,9.6c-2.9,4.8-19.3,2.3-31.1,0.4c-6.1-1.1-12.2-1.7-18.3-1.7c-30.2,2.5-56.6,27.9-59.8,57.9l4.2,0.4
	C955.5,319.8,980.2,296.1,1008.4,293.8z"/>
<path class="st2" d="M-0.7,107.4c3.5-2.7,7.6-4.7,11.9-5.9c7.4-1.9,15-1.2,23.4-0.1c1.5,0.2,3.4,0.6,5.3,1c5.5,1.1,11.6,2.4,16,0.9
	c6.3-2.1,10-10.3,13.5-18.2c2.2-4.8,4.2-9.4,6.6-12.2c8-9,17.9-16,28.9-20.5c17.9-7.4,39.2-9.1,61.4-4.8l0.4-2.2
	C144,41,122.3,42.7,104,50.3C92.6,55,82.4,62.2,74.3,71.4c-2.7,3.1-4.8,7.8-7,12.8c-3.3,7.5-6.8,15.2-12.2,17
	c-3.9,1.3-9.7,0.1-14.9-1c-2-0.4-3.9-0.8-5.5-1c-8.6-1.1-16.4-1.9-24.2,0.1c-4.6,1.2-8.9,3.3-12.7,6.3L-0.7,107.4z"/>
<path class="st1" d="M85.9,101.6c3.1,0,5.8-2.1,8.2-4c0.4-0.3,0.9-0.7,1.3-1c6.1-4.5,13.8-6.2,21.3-4.8l0.4-2.2
	c-8.1-1.6-16.4,0.3-23,5.2l-1.3,1c-2.4,1.9-4.9,3.8-7.7,3.4c-2.4-0.4-4-2.4-5.7-4.6c-0.7-0.9-1.4-1.7-2.2-2.5
	c-2.7-2.7-6.2-4.4-9.3-5.7c-4.9-2.1-10.2-4.1-15.8-4.1v2.2c5.2,0.1,10.2,1.9,14.9,4c3.1,1.3,6.3,2.8,8.6,5.3c0.7,0.7,1.3,1.5,2,2.4
	c1.9,2.4,3.9,4.9,7.1,5.4C85.1,101.5,85.5,101.6,85.9,101.6z"/>
<path class="st3" d="M618,347.3c7.5-22.5,5.4-47-5.9-67.8c-22.6-41.7-74.5-57.3-116.2-34.8l-0.4,0.2c-41.5,22.8-56.8,75-34,116.6
	c4.5,8.2,10.1,15.4,17,21.7l1.5-1.6c-33.9-31.4-36-84.3-4.6-118.3c6.2-6.7,13.3-12.2,21.2-16.6l0.4-0.2c40.7-21.8,91.3-6.6,113.3,34
	c11.1,20.3,13.1,44.2,5.8,66L618,347.3z"/>
<path class="st0" d="M123.8,607.7c-0.5-0.6-0.4-1.5,0.1-2.1l0,0c-6.1-8.8-14.2-15.7-21.7-18.4c-2.7-0.9-5.4-1.6-8.1-2.1
	c-4.5-0.9-9.2-1.8-14.1-5.1c-5.6-3.7-10.3-8.6-14.9-13.3l-0.8-0.8c-8.2-8.5-17.1-17.2-27.6-23.3c-11.6-6.6-23.8-8.9-34.3-6.5l-0.5-2
	c11.1-2.6,23.8-0.2,35.8,6.7c10.8,6.2,19.8,15.1,28.1,23.6l0.8,0.8c4.5,4.6,9.1,9.4,14.5,13c4.5,3,8.8,3.9,13.3,4.8
	c2.9,0.5,5.7,1.3,8.4,2.2c8,2.9,16.6,10.2,23,19.5c0.5,0.6,0.6,1.4,0.5,2.2c-0.1,0.5-0.4,0.9-0.9,1.1c-0.2,0.1-0.4,0.2-0.7,0.2
	C124.4,608.3,124,608.1,123.8,607.7z M124.1,607.3c0.3,0.2,0.8,0.2,1.1-0.1c0,0,0.4-0.4,0.2-0.7c-0.1-0.1-0.3-0.3-0.4-0.3
	L124.1,607.3z"/>
<path class="st0" d="M934.2,684.9l1.9-0.7c-0.9-2.5-24.8-27.1-29.6-32.1l-1.5,1.4C915.8,664.6,933.3,683,934.2,684.9z"/>
<path class="st0" d="M352.4,693.6l-1.7-0.4c2.2-14.9-2.3-31.3-12.1-43.8c-8.4-10.7-20.5-18.8-35.1-23.3c-12.6-3.9-22.5-3-29.4,2.8
	c-0.8,0.7-1.6,1.4-2.4,2.2c-1.7,1.8-3.6,3.3-5.7,4.4c-5.1,2.2-11.1,0-18.3-6.8c-11.2-10.5-31.1-16.3-46.1-6.4
	c-1.4,1-2.9,2.1-4.3,3.1c-3.8,2.9-7.6,5.9-12.2,6.5c-2.5,0.2-5,0-7.5-0.5c-0.9-0.2-1.7-0.3-2.6-0.4c-19.3-2.6-39.2,15.8-41.6,38.5
	l-1.7-0.2c2.6-23.7,23.3-42.9,43.5-40.2c0.9,0.1,1.8,0.3,2.7,0.4c2.3,0.5,4.7,0.7,7.1,0.5c4.2-0.6,7.7-3.3,11.4-6.2
	c1.4-1.1,2.9-2.2,4.4-3.2c15.8-10.5,36.1-4.6,48,6.5c6.8,6.3,12.2,8.5,16.7,6.5c1.9-1,3.7-2.4,5.2-4c0.8-0.8,1.6-1.6,2.5-2.3
	c7.3-6.1,17.7-7.2,30.9-3.1c14.9,4.6,27.4,12.9,35.9,23.9C350.1,661.1,354.7,678.1,352.4,693.6z"/>
<rect x="298.3" y="657" class="st0" width="1.7" height="120.5"/>
<polygon class="st0" points="266.7,677.9 268.1,676.6 299.9,722.9 298.6,724.2 "/>
<polygon class="st0" points="169.3,671 170.3,669.4 186.4,682.2 185.4,683.8 "/>
<path class="st0" d="M186.5,750.4h-1.7v-96c0.1-0.6,0.2-1.2,0.2-1.8s0.1-1.2,0.2-1.8l1.7,0.3c-0.1,0.6-0.2,1.2-0.2,1.8
	c-0.1,0.6-0.1,1.2-0.2,1.8V750.4z"/>
<path class="st0" d="M186.7,702.2l-1.4-1.1c6.8-12.5,14.1-24.9,21.7-36.7l0.6-1l1.4,1.2l-0.6,1C200.7,677.4,193.4,689.7,186.7,702.2
	z"/>
<path class="st0" d="M299.7,701.9l-1.6-0.7c0.8-2.5,20.8-26.8,24.9-31.6l1.2,1.4C315.2,681.9,300.5,700,299.7,701.9z"/>
<rect x="34.2" y="587.7" class="st0" width="2" height="122.1"/>
<rect x="23.9" y="630.7" transform="matrix(0.6285 -0.7778 0.7778 0.6285 -471.2824 276.7107)" class="st0" width="60.3" height="2"/>
<path class="st0" d="M34.5,633.2l1.9-0.7c-0.9-2.5-24.8-27.1-29.6-32.1l-1.5,1.4C16.2,612.9,33.7,631.2,34.5,633.2z"/>
<path class="st4" d="M-28.8,423.3c172.3,35.1,353,15.3,520.4-38.8c60.6-19.6,124.6-43.9,186.2-27.7c32.7,8.6,61.2,28,91.5,43
	c52.2,25.9,110.7,39.2,169,38.3c63.2-1,126.1-18.2,188.9-10.9c21,2.4,41.6,7.6,62.6,10.1c64.8,7.8,131.6-9.6,195.1,5.2"/>
<path class="st5" d="M1030.5,185.7c-1.3-3.4-3.2-6.2-5.7-8.7c-4.2-4.4-9.3-7.2-14.8-9.4c-9.5-3.7-19.3-4.9-29.3-5.1
	c-2.2,0-4.4-0.1-6.5,0c-9.5,0.3-18.8,1.6-27.7,5.2c-7.6,3-14.4,7.3-18.9,14.8c-1.6,2.8-2.4,5.8-2.9,8.9c-0.6,3.8,0.5,7.4,2,10.8
	c2.2,4.9,5.1,9.3,8.3,13.4c2.7,3.5,5.5,7,8.5,10.3c4.3,4.7,8.6,9.3,13.2,13.6c4.4,4.2,9.1,8.1,13.6,12.1c1.5,1.4,3.2,2.1,5.2,2
	c2.2-0.2,4.4-0.1,6.5-0.1c1.2,0,2.2-0.3,3.1-1.1c3.1-2.7,6.4-5.2,9.4-8c4.5-4.2,8.8-8.4,13.1-12.8c3.6-3.7,7-7.6,10.3-11.6
	c1.9-2.3,3.9-4.6,5.5-7.1c2.2-3.3,4.3-6.8,6.1-10.4c1.3-2.5,2.3-5.2,2.4-8.3C1032,191.3,1031.5,188.5,1030.5,185.7z M962.9,242.3
	c-3.8-3.6-7.6-7.3-11.4-11c-1.9-1.9-3.7-3.9-5.4-6c-2.4-2.8-4.9-5.6-7.2-8.5c-3.4-4.3-6.6-8.8-9.1-13.8c-1.8-3.6-3.1-7.3-2.6-11.5
	c0.5-3.8,1.8-7.2,4-10.2c5-6.7,11.8-10.3,19.3-12.8c1.5-0.5,3.1-0.9,4.6-1.4c0.3-0.1,0.7-0.1,1.3-0.2c-2,1.4-3.7,2.5-5.4,3.7
	c-4.1,3-7.2,6.8-9.2,11.7c-1.9,4.7-3,9.5-2.2,14.6c0.4,2.5,1.3,5,2.1,7.4c0.9,2.5,1.9,4.9,3,7.2c1.7,3.4,3.7,6.6,5.5,9.9
	c1,1.7,1.9,3.4,3,5c2,3,4,6,6.1,8.9c2.5,3.5,5.1,7,7.5,10.7C965.6,244.7,964.2,243.5,962.9,242.3z M963.7,228.7
	c0-0.1,0.1-0.1,0.1-0.2c0.1,0.3,0.2,0.6,0.4,0.9c0.1,0.2,0.2,0.5,0.3,0.7C964.2,229.6,964,229.2,963.7,228.7z M975.1,246.8
	c-0.1,0-0.2,0.1-0.3,0.1c-0.5-0.7-1-1.4-1.3-2.2c-1.1-2.4-2.1-4.9-3.2-7.3c-1.1-2.5-2.2-5-3.3-7.5c-0.8-1.9-1.5-3.9-2.2-5.9
	c-1.2-3.4-2.4-6.7-3.6-10.1c-0.7-1.9-1.3-3.9-1.7-5.9c-0.8-3.9-1.6-7.8-2.1-11.7c-0.6-4.3,0.1-8.6,1-12.8
	c1.5-6.6,4.4-12.4,10.1-16.1c1.7-1.1,3.6-1.7,5.5-2.7c-0.8,2.4-1.5,4.5-2,6.6c-0.7,3.1-1.3,6.3-1.7,9.5c-0.4,4.2-0.6,8.5-0.7,12.7
	c-0.1,2.8,0,5.7,0.2,8.5c0.3,3.9,0.6,7.8,1,11.7c0.5,4.7,1.1,9.3,1.7,14c0.4,2.9,0.7,5.7,1.1,8.6c0.5,3.4,1.1,6.7,1.6,10
	C975.1,246.4,975.1,246.6,975.1,246.8z M978.3,251.5c-0.4,0-0.8,0-1.1,0l0,0c0.4,0,0.8-0.2,1.2-0.4
	C978.3,251.2,978.3,251.4,978.3,251.5z M983.8,242.9c-0.3,0.3-0.5,0.8-0.6,1.3c-0.1,0.3-0.3,0.7-0.4,1c-0.3,0.6-0.5,1.1-0.8,1.7
	l-0.6-0.2c0.1-1,0.2-2,0.3-3c0.3-1.8,0.6-3.6,0.9-5.4c0.7-4.8,1.3-9.6,1.9-14.3c0.4-2.9,0.7-5.7,1-8.6c0.4-3.7,0.5-7.5,1.1-11.3
	c0.9-6.7,0.7-13.3,0.3-20c-0.3-4.4-1.1-8.8-1.9-13.1c-0.4-2.1-1.4-4-2.2-6.2c2.7,0.7,5.2,1.8,7.3,3.6c3.7,3.2,6.1,7.4,7.6,12.1
	c2,6.3,2.4,12.7,1.4,19.2c-0.6,4.2-2,8.4-3.1,12.5c-0.9,3.2-2,6.4-3.1,9.6c-1,2.7-2.1,5.4-3.2,8.1c-0.7,1.7-1.4,3.5-2.2,5.2
	C986.1,237.8,985,240.4,983.8,242.9z M1029,197.2c-0.6,2.5-1.7,5-3,7.2c-2.2,3.8-4.7,7.5-7.3,11c-2.5,3.3-5.3,6.3-7.9,9.4
	c-1.7,2-3.4,3.9-5.2,5.8c-2.2,2.2-4.4,4.4-6.6,6.6c-3,2.8-6,5.6-9.1,8.4c-0.1,0.1-0.3,0.2-0.6,0.1c1.3-1.7,2.6-3.4,3.8-5.2
	c2.4-3.4,4.8-6.8,7.2-10.2c2.1-3.1,4.2-6.1,6.1-9.3c1.5-2.5,2.9-5.1,4.2-7.8c1.4-2.9,2.8-5.8,4.1-8.7c0.5-1.1,0.9-2.4,1.2-3.6
	c1-3.6,1.4-7.3,0.9-11.1c-0.6-4.7-2.2-9.1-4.9-12.9c-3-4.2-6.8-7.5-11.3-9.7c-0.1-0.1-0.2-0.2-0.4-0.3c0-0.1,0.1-0.2,0.1-0.3
	c0.7,0.2,1.4,0.3,2.1,0.5c5.4,1.5,10.5,3.5,15.2,6.7c3.3,2.2,6.3,4.9,8.5,8.4C1028.9,186.9,1030.3,191.9,1029,197.2z M1003.7,172
	c0.3,0.2,0.6,0.5,0.9,0.8c-0.1,0.1-0.2,0.1-0.2,0.2c-0.2-0.3-0.4-0.5-0.6-0.8C1003.8,172,1003.7,172,1003.7,172z M1011.9,204.8
	c0.2-0.5,0.3-1,0.4-1.5c0.1,0,0.2-0.1,0.2-0.1C1012.4,203.7,1012.2,204.3,1011.9,204.8z"/>
<path class="st6" d="M982.5,259.5c-3.2-0.2-6.4-0.2-9.6,0c-1.4,0.1-1.9,2-1.9,6.3c0,2.7,0,5.5,0,8.2c0,4.8,0.5,6.2,2.2,6.3
	c1.5,0.1,3,0,4.4,0l0,0c1.6,0,3.2,0.1,4.8,0c1.2-0.1,2-1.8,1.9-5.9c0-3-0.1-6,0-9C984.5,261.4,983.7,259.6,982.5,259.5z"/>
<path class="st7" d="M973.4,264.5c-0.1-0.5-0.9-0.3-0.7,0.2c1,3.3,1.4,6.7,1.2,10.2c0,0.5,0.7,0.5,0.7,0
	C974.8,271.4,974.4,267.9,973.4,264.5z"/>
<path class="st7" d="M976.4,262.2c-0.2-0.5-0.8-0.1-0.6,0.4c1.5,3.8,2.1,8.1,1.7,12.3c-0.1,0.5,0.7,0.5,0.7,0
	C978.6,270.6,978,266.2,976.4,262.2z"/>
<path class="st7" d="M981.7,263.5c-0.2-0.5-0.9-0.3-0.7,0.2c1.3,3.9,1.5,8.2,0.6,12.2c-0.1,0.5,0.6,0.7,0.7,0.2
	C983.3,272,983.1,267.5,981.7,263.5z"/>
<path class="st8" d="M1089.3,145c-0.3,1.8,0.2,3.4,0.8,5c0.9,2.3,1.9,4.5,3.1,6.6c0.9,1.6,1.9,3.2,3,4.7c1.9,2.6,3.8,5.3,5.8,7.8
	c2.4,3,4.9,5.9,7.5,8.8c1.7,1.9,3.7,3.7,5.5,5.6c0.5,0.6,1.2,0.9,2,1c1.5,0.2,2.9,0.4,4.3,0.7s2.5,0.1,3.7-0.6
	c3.4-1.8,6.9-3.5,10.2-5.5c3.4-2,6.8-4.2,10.1-6.4c2.3-1.6,4.5-3.3,6.6-5c2.5-2,4.9-4.2,6.8-6.8c1.3-1.8,2.4-3.7,2.4-6
	c0-1.9-0.3-3.7-1.1-5.5c-2.3-4.8-6.4-8-11.2-10.6c-5.6-3-11.7-4.8-18-6c-1.4-0.3-2.9-0.5-4.4-0.7c-6.7-1-13.4-1.3-20-0.2
	c-3.9,0.6-7.5,1.7-10.7,3.8c-1.9,1.2-3.4,2.6-4.6,4.4C1090.2,141.8,1089.6,143.3,1089.3,145z M1127.7,181.8c1.9-1.9,4-3.6,6-5.3
	c1.7-1.5,3.3-3,4.9-4.5c0.9-0.8,1.7-1.7,2.5-2.6c1.6-1.7,3.2-3.4,4.6-5.1c1-1.2,1.9-2.5,2.7-3.8c0.8-1.3,1.6-2.6,2.1-4
	c1-2.8,0.8-5.7-0.1-8.6c-0.9-3-2.6-5.5-5-7.7c-1-0.9-2-1.7-3.2-2.7c0.4,0.1,0.7,0.2,0.9,0.3c1,0.4,2,0.8,2.9,1.3
	c4.7,2.3,9,5.1,11.6,9.5c1.2,2,1.7,4.1,1.7,6.3c0,2.5-1.3,4.5-2.8,6.3c-2.1,2.6-4.7,4.8-7.3,6.9c-1.8,1.4-3.7,2.8-5.6,4.1
	c-1.4,1-2.7,2-4.2,2.8c-2.8,1.7-5.7,3.4-8.6,5.1C1129.8,180.7,1128.7,181.2,1127.7,181.8z M1130.9,173c0.1-0.1,0.2-0.2,0.2-0.4
	c0.1-0.2,0.2-0.3,0.3-0.5c0,0,0,0.1,0.1,0.1C1131.3,172.5,1131.1,172.7,1130.9,173z M1122.3,181.1c0.7-1.9,1.4-3.7,2-5.6
	c0.5-1.6,1-3.2,1.5-4.8c0.8-2.6,1.7-5.2,2.5-7.8c0.6-2.2,1.2-4.4,1.8-6.6c0.4-1.6,0.7-3.2,0.9-4.9c0.3-2.5,0.6-4.9,0.7-7.4
	c0.1-1.9-0.1-3.8-0.2-5.6c-0.1-1.3-0.4-2.5-0.7-4c1.2,0.7,2.4,1.3,3.4,2.1c3.4,2.7,4.8,6.4,5.2,10.3c0.2,2.5,0.3,5.1-0.5,7.5
	c-0.7,2.2-1.6,4.4-2.5,6.5c-0.5,1.1-1.1,2.2-1.7,3.2c-1.1,1.8-2.2,3.6-3.3,5.4c-0.7,1.1-1.3,2.1-2,3.1c-0.9,1.3-1.9,2.6-2.9,4
	c-0.9,1.3-1.8,2.6-2.8,3.9c-0.3,0.4-0.7,0.8-1.1,1.1c-0.1,0-0.1-0.1-0.2-0.1C1122.3,181.3,1122.3,181.2,1122.3,181.1z M1119.7,183.5
	c0.2,0.2,0.5,0.3,0.7,0.4l0,0c-0.3,0-0.5-0.1-0.8-0.1C1119.7,183.7,1119.7,183.6,1119.7,183.5z M1115.2,173.4
	c-0.3-1.1-0.7-2.1-1-3.2c-0.5-1.7-1-3.3-1.4-5c-0.5-1.9-0.9-3.9-1.2-5.9c-0.4-2.5-0.9-5-0.9-7.5c0-3.8,0.8-7.5,2.7-10.9
	c1.5-2.6,3.4-4.7,6.2-6.1c1.6-0.8,3.3-1.2,5.2-1.3c-0.8,1.2-1.6,2.2-2.1,3.3c-1,2.4-1.9,4.8-2.5,7.3c-0.9,3.8-1.7,7.6-1.7,11.5
	c0,2.2-0.2,4.4-0.4,6.6c-0.1,1.7-0.1,3.4-0.1,5c0,2.8-0.1,5.6-0.1,8.4c0,1.1,0.1,2.1,0.1,3.2c0,0.6-0.1,1.2-0.1,1.8h-0.4
	c-0.1-0.4-0.2-0.7-0.4-1.1c-0.1-0.2-0.1-0.4-0.2-0.6c0-0.3-0.1-0.6-0.3-0.8C1116.3,176.6,1115.8,175,1115.2,173.4z M1094.3,138.8
	c1.7-1.8,4-3,6.4-3.9c3.4-1.3,7-1.9,10.8-2.2c0.5,0,1,0,1.4-0.1c0,0.1,0,0.1,0,0.2c-0.1,0-0.2,0.1-0.3,0.1c-3.2,0.8-6.1,2.2-8.4,4.3
	c-2.1,1.9-3.6,4.2-4.5,6.9c-0.7,2.1-0.7,4.3-0.4,6.5c0.1,0.7,0.2,1.5,0.5,2.2c0.6,1.8,1.2,3.6,1.9,5.4c0.6,1.7,1.3,3.3,2.1,4.9
	c1,2,2.1,4,3.2,6c1.2,2.2,2.5,4.4,3.8,6.7c0.7,1.1,1.4,2.3,2.1,3.4c-0.2,0-0.3-0.1-0.4-0.1c-1.8-1.9-3.5-3.9-5.3-5.8
	c-1.3-1.5-2.6-3-3.8-4.5c-1-1.3-2-2.6-2.9-3.9c-1.5-2.1-3.1-4.1-4.4-6.3c-1.4-2.3-2.7-4.7-3.8-7.1c-0.7-1.4-1.1-3-1.3-4.5
	C1090.7,143.8,1092.1,141.1,1094.3,138.8z M1110.2,135.3c-0.2,0.1-0.3,0.3-0.5,0.4l-0.1-0.1C1109.8,135.5,1110,135.4,1110.2,135.3
	L1110.2,135.3z M1101.4,152.2l0.1,0.1c0.1,0.3,0.1,0.6,0.2,0.9C1101.6,152.9,1101.5,152.6,1101.4,152.2z"/>
<path class="st6" d="M1116.1,187.9c2.1,0.2,4.3,0.6,6.4,1c0.9,0.2,1.1,1.3,0.7,3.9c-0.2,1.6-0.5,3.1-0.8,4.7c-0.5,2.7-0.9,3.5-2,3.4
	c-1-0.1-2-0.3-3-0.5l0,0c-1.1-0.2-2.2-0.3-3.2-0.6c-0.8-0.2-1.1-1.3-0.7-3.6c0.3-1.7,0.6-3.4,0.8-5.2
	C1114.6,188.8,1115.4,187.8,1116.1,187.9z"/>
<path class="st7" d="M1121.7,191.8c0.1-0.3,0.6-0.1,0.5,0.2c-1,1.8-1.5,3.7-1.8,5.7c0,0.3-0.5,0.2-0.5-0.1
	C1120.1,195.6,1120.7,193.6,1121.7,191.8z"/>
<path class="st7" d="M1119.9,190.1c0.2-0.3,0.6,0.1,0.4,0.3c-1.4,2-2.2,4.4-2.3,6.9c0,0.3-0.5,0.2-0.5-0.1
	C1117.7,194.7,1118.5,192.3,1119.9,190.1z"/>
<path class="st7" d="M1116.3,190.3c0.2-0.3,0.6-0.1,0.5,0.2c-1.2,2.1-1.8,4.5-1.5,7c0,0.3-0.5,0.4-0.5,0
	C1114.4,195,1115,192.4,1116.3,190.3z"/>
</svg>
